# xmcd
#
# Track frame offsets: 
#        150
#        13690
#        23442
#        37380
#        52302
#        64315
#        77665
#        89845
#        103410
#        117377
#        130982
#        141245
#        153820
#        165775
#        179650
#        193307
#        206420
#        220355
#        234642
#        248840
#        262492
#        274487
#        287587
#        301357
#
# Disc length: 4186 seconds
#
# Revision: 4
# Processed by: cddbd v1.5.2PL0 Copyright (c) Steve Scherf et al.
# Submitted via: ExactAudioCopy v0.99pb5
#
DISCID=7d105818
DTITLE=Billie Holiday - A Portrait of [CD2)
DYEAR=1997
DGENRE=Jazz
TTITLE0=God Bless The Child
TTITLE1=I'm Gonna Lock My Heart And Throw Away The Key
TTITLE2=Easy Living
TTITLE3=Pennies From Heaven
TTITLE4=Ghost Of Yesterday
TTITLE5=Let's Do It
TTITLE6=I Hear Music
TTITLE7=Body And Soul
TTITLE8=More Than You Know
TTITLE9=Night And Day
TTITLE10=Trav'lin' All Alone
TTITLE11=Sugar
TTITLE12=Me, Myself and I (Are All In Love With You)
TTITLE13=Getting Some Fun Out Of Life
TTITLE14=Foolin' Myself
TTITLE15=A Sailboat In The Moonlight
TTITLE16=Moanin' Low
TTITLE17=I'll Get By
TTITLE18=This Year's Kisses
TTITLE19=The Mood That I'm In
TTITLE20=Let's Call The Whole Thing Off
TTITLE21=What A Night, What A Moon, What A Girl
TTITLE22=Miss Brown To You
TTITLE23=A Sunbonnet Blue (And A Yellow Straw Hat)
EXTD=
EXTT0=
EXTT1=
EXTT2=
EXTT3=
EXTT4=
EXTT5=
EXTT6=
EXTT7=
EXTT8=
EXTT9=
EXTT10=
EXTT11=
EXTT12=
EXTT13=
EXTT14=
EXTT15=
EXTT16=
EXTT17=
EXTT18=
EXTT19=
EXTT20=
EXTT21=
EXTT22=
EXTT23=
PLAYORDER=
